<?xml version="1.0" encoding="UTF-8"?>
<svg xmlns="http://www.w3.org/2000/svg" xmlns:xlink="http://www.w3.org/1999/xlink" width="209px" height="303px" viewBox="0 0 209 303" version="1.1">
<defs>
<linearGradient id="linear0" gradientUnits="userSpaceOnUse" x1="2" y1="63.099518" x2="109" y2="128.69501" gradientTransform="matrix(1.492857,0,0,1.594737,0,-1.594737)">
<stop offset="0" style="stop-color:rgb(92.156863%,94.117647%,81.568627%);stop-opacity:1;"/>
<stop offset="1" style="stop-color:rgb(100%,100%,92.156863%);stop-opacity:1;"/>
</linearGradient>
<linearGradient id="linear1" gradientUnits="userSpaceOnUse" x1="138.23376" y1="146.6171" x2="36.519855" y2="18.728254" gradientTransform="matrix(1.275261,0,0,1.866844,0,0)">
<stop offset="0" style="stop-color:rgb(0%,0%,52.54902%);stop-opacity:1;"/>
<stop offset="1" style="stop-color:rgb(0%,35.294118%,100%);stop-opacity:1;"/>
</linearGradient>
<linearGradient id="linear2" gradientUnits="userSpaceOnUse" x1="22.029089" y1="17.152563" x2="146.39938" y2="140.45406" gradientTransform="matrix(1.27695,0,0,1.864377,0,0)">
<stop offset="0" style="stop-color:rgb(0%,0%,52.54902%);stop-opacity:1;"/>
<stop offset="1" style="stop-color:rgb(0%,35.294118%,100%);stop-opacity:1;"/>
</linearGradient>
<linearGradient id="linear3" gradientUnits="userSpaceOnUse" x1="24.31427" y1="31.254068" x2="128.44019" y2="134.97331" gradientTransform="matrix(1.321285,0,0,1.801818,0,0)">
<stop offset="0" style="stop-color:rgb(0%,0%,52.54902%);stop-opacity:1;"/>
<stop offset="1" style="stop-color:rgb(0%,35.294118%,100%);stop-opacity:1;"/>
</linearGradient>
</defs>
<g id="surface1">
<path style=" stroke:none;fill-rule:nonzero;fill:rgb(0%,0%,0%);fill-opacity:0.498039;" d="M 31.351562 7.972656 L 185.113281 7.972656 C 198.347656 7.972656 209 19.355469 209 33.488281 L 209 277.484375 C 209 291.621094 198.347656 303 185.113281 303 L 31.351562 303 C 18.117188 303 7.464844 291.621094 7.464844 277.484375 L 7.464844 33.488281 C 7.464844 19.355469 18.117188 7.972656 31.351562 7.972656 Z M 31.351562 7.972656 "/>
<path style=" stroke:none;fill-rule:nonzero;fill:rgb(100%,100%,100%);fill-opacity:1;" d="M 25.378906 1.59375 L 179.144531 1.59375 C 192.375 1.59375 203.027344 12.976562 203.027344 27.109375 L 203.027344 271.105469 C 203.027344 285.242188 192.375 296.621094 179.144531 296.621094 L 25.378906 296.621094 C 12.144531 296.621094 1.492188 285.242188 1.492188 271.105469 L 1.492188 27.109375 C 1.492188 12.976562 12.144531 1.59375 25.378906 1.59375 Z M 25.378906 1.59375 "/>
<path style=" stroke:none;fill-rule:nonzero;fill:rgb(78.039216%,53.72549%,12.156863%);fill-opacity:1;" d="M 28.363281 4.785156 L 182.128906 4.785156 C 195.359375 4.785156 206.015625 16.164062 206.015625 30.300781 L 206.015625 274.292969 C 206.015625 288.429688 195.359375 299.808594 182.128906 299.808594 L 28.363281 299.808594 C 15.132812 299.808594 4.480469 288.429688 4.480469 274.292969 L 4.480469 30.300781 C 4.480469 16.164062 15.132812 4.785156 28.363281 4.785156 Z M 28.363281 4.785156 "/>
<path style=" stroke:none;fill-rule:nonzero;fill:url(#linear0);" d="M 26.871094 3.191406 L 180.636719 3.191406 C 193.867188 3.191406 204.519531 14.570312 204.519531 28.707031 L 204.519531 272.699219 C 204.519531 286.835938 193.867188 298.214844 180.636719 298.214844 L 26.871094 298.214844 C 13.640625 298.214844 2.984375 286.835938 2.984375 272.699219 L 2.984375 28.707031 C 2.984375 14.570312 13.640625 3.191406 26.871094 3.191406 Z M 26.871094 3.191406 "/>
<path style=" stroke:none;fill-rule:nonzero;fill:url(#linear1);" d="M 33.089844 15.949219 L 174.042969 15.949219 C 186.171875 15.949219 195.9375 26.378906 195.9375 39.335938 L 195.9375 263 C 195.9375 275.957031 186.171875 286.386719 174.042969 286.386719 L 33.089844 286.386719 C 20.960938 286.386719 11.195312 275.957031 11.195312 263 L 11.195312 39.335938 C 11.195312 26.378906 20.960938 15.949219 33.089844 15.949219 Z M 33.089844 15.949219 "/>
<path style=" stroke:none;fill-rule:nonzero;fill:url(#linear2);" d="M 33.074219 14.949219 C 20.445312 14.949219 10.261719 25.828125 10.261719 39.320312 L 10.261719 262.980469 C 10.261719 276.476562 20.445312 287.402344 33.074219 287.402344 L 174.058594 287.402344 C 186.6875 287.402344 196.871094 276.476562 196.871094 262.980469 L 196.871094 39.320312 C 196.871094 25.828125 186.6875 14.949219 174.058594 14.949219 Z M 33.074219 16.945312 L 174.058594 16.945312 C 185.6875 16.945312 195.003906 26.898438 195.003906 39.320312 L 195.003906 262.980469 C 195.003906 275.40625 185.6875 285.40625 174.058594 285.40625 L 33.074219 285.40625 C 21.445312 285.40625 12.128906 275.40625 12.128906 262.980469 L 12.128906 39.320312 C 12.128906 26.898438 21.445312 16.945312 33.074219 16.945312 Z M 33.074219 16.945312 "/>
<path style=" stroke:none;fill-rule:evenodd;fill:url(#linear3);" d="M 58.082031 33.886719 C 49.535156 33.886719 42.59375 45.074219 42.59375 58.855469 C 42.59375 70.597656 56.667969 90.339844 56.121094 99.722656 C 51.601562 102.402344 37.636719 77.695312 30.417969 77.695312 C 21.867188 77.695312 14.929688 88.878906 14.929688 102.660156 C 14.929688 116.445312 21.867188 127.628906 30.417969 127.628906 C 37.832031 127.628906 50.53125 102.871094 56.121094 105.101562 C 56.226562 108.304688 55.921875 137.8125 54.347656 139.9375 C 50.945312 144.53125 46.652344 144.222656 46.652344 144.222656 L 46.746094 149.257812 L 69.230469 149.109375 L 69.324219 144.074219 C 69.324219 144.074219 65.078125 144.433594 61.671875 139.839844 C 60.109375 137.722656 59.398438 106.3125 59.386719 105.300781 L 59.527344 105.300781 L 59.527344 105.351562 C 65 103.160156 78.152344 128.078125 85.511719 128.078125 C 94.0625 128.078125 101 116.894531 101 103.109375 C 101 89.328125 94.0625 78.140625 85.511719 78.140625 C 78.324219 78.140625 65.296875 102.480469 59.574219 99.96875 C 59.65625 90.355469 73.570312 70.585938 73.570312 58.855469 C 73.570312 45.074219 66.628906 33.886719 58.082031 33.886719 Z M 147.046875 40.117188 C 133.820312 68.375 124.160156 82.960938 104.265625 98.523438 C 123.09375 113.902344 136.367188 129.800781 147.417969 155.488281 C 157.292969 131.082031 169.363281 112.902344 190.339844 97.777344 C 169.238281 86.300781 157.042969 68.089844 147.046875 40.117188 Z M 37.507812 157.480469 C 34.941406 157.5 32.140625 158.207031 29.015625 159.722656 C -5.011719 187.972656 40.859375 233.535156 60.226562 272.648438 L 60.789062 272.847656 C 82.074219 230.09375 122.585938 183.039062 91.625 159.722656 C 67.09375 147.800781 60.550781 187.445312 60.320312 188.875 C 60.121094 187.628906 55.105469 157.355469 37.507812 157.480469 Z M 147.792969 157.730469 C 132.007812 184.542969 83.5625 230.246094 114.25 244.34375 C 132.878906 250.832031 141.753906 237.539062 145.507812 228.746094 L 146.253906 228.746094 C 146.226562 230.398438 145.519531 262.710938 143.546875 264.625 C 139.21875 268.824219 133.75 268.515625 133.75 268.515625 L 133.84375 273.097656 L 162.535156 272.949219 L 162.628906 268.464844 C 162.628906 268.464844 157.207031 268.726562 152.878906 264.527344 C 150.902344 262.613281 150.152344 230.328125 150.125 228.695312 L 150.453125 228.695312 C 153.484375 235.882812 164.992188 250.757812 177.648438 245.089844 C 214.664062 229.207031 160.171875 183.988281 147.792969 157.730469 Z M 147.792969 157.730469 "/>
</g>
</svg>
